<svg xmlns="http://www.w3.org/2000/svg" version="1.1" xmlns:xlink="http://www.w3.org/1999/xlink" xmlns:svgjs="http://svgjs.dev/svgjs" width="400" height="250" preserveAspectRatio="none" viewBox="0 0 400 250"><g mask="url(&quot;#SvgjsMask1236&quot;)" fill="none"><rect width="400" height="250" x="0" y="0" fill="rgba(24, 106, 59, 1)"></rect><path d="M0,114.738C23.021,113.271,46.575,114.983,66.982,104.227C88.395,92.94,108.028,75.889,116.628,53.262C125.039,31.132,118.087,6.855,112.758,-16.212C107.818,-37.596,102.92,-60.293,86.925,-75.321C71.489,-89.825,48.992,-92.182,28.113,-95.743C9.337,-98.946,-8.908,-96.752,-27.865,-94.901C-51.405,-92.603,-76.716,-96.608,-96.456,-83.58C-118.43,-69.078,-135.172,-45.952,-140.951,-20.266C-146.919,6.26,-140.845,34.461,-128.461,58.666C-116.383,82.274,-97.009,102.523,-72.705,113.131C-50.029,123.029,-24.692,116.312,0,114.738" fill="#13522d"></path><path d="M400 435.72900000000004C434.844 436.33000000000004 444.69 383.978 473.536 364.424 501.276 345.62 545.248 352.735 563.701 324.76 582.141 296.805 568.814 259.557 564.624 226.331 560.361 192.524 565.63 150.845 539.078 129.488 511.993 107.703 471.305 129.774 437.074 123.738 408.185 118.643 382.941 87.83699999999999 355.088 97.043 327.125 106.285 320.173 142.376 304.756 167.47 291.954 188.308 277.831 207.809 272.389 231.652 266.596 257.03 262.40999999999997 284.227 272.64300000000003 308.162 282.97 332.318 309.517 343.321 328.078 361.913 352.852 386.727 364.94100000000003 435.124 400 435.72900000000004" fill="#1e8249"></path></g><defs><mask id="SvgjsMask1236"><rect width="400" height="250" fill="#ffffff"></rect></mask></defs></svg>