<svg xmlns="http://www.w3.org/2000/svg" version="1.1" xmlns:xlink="http://www.w3.org/1999/xlink" xmlns:svgjs="http://svgjs.dev/svgjs" width="1446" height="542" preserveAspectRatio="none" viewBox="0 0 1446 542"><g mask="url(&quot;#SvgjsMask1026&quot;)" fill="none"><rect width="1446" height="542" x="0" y="0" fill="#0e2a47"></rect><path d="M126.38 548.12L191.34 585.62L191.34 660.62L126.38 698.12L61.43 660.62L61.43 585.62zM710.97 210.62L775.92 248.12L775.92 323.12L710.97 360.62L646.01 323.12L646.01 248.12zM905.83 548.12L970.78 585.62L970.78 660.62L905.83 698.12L840.87 660.62L840.87 585.62z" stroke="#03305d" stroke-width="2"></path><path d="M118.88 548.12 a7.5 7.5 0 1 0 15 0 a7.5 7.5 0 1 0 -15 0zM183.84 585.62 a7.5 7.5 0 1 0 15 0 a7.5 7.5 0 1 0 -15 0zM183.84 660.62 a7.5 7.5 0 1 0 15 0 a7.5 7.5 0 1 0 -15 0zM118.88 698.12 a7.5 7.5 0 1 0 15 0 a7.5 7.5 0 1 0 -15 0zM53.93 660.62 a7.5 7.5 0 1 0 15 0 a7.5 7.5 0 1 0 -15 0zM53.93 585.62 a7.5 7.5 0 1 0 15 0 a7.5 7.5 0 1 0 -15 0zM703.47 210.62 a7.5 7.5 0 1 0 15 0 a7.5 7.5 0 1 0 -15 0zM768.42 248.12 a7.5 7.5 0 1 0 15 0 a7.5 7.5 0 1 0 -15 0zM768.42 323.12 a7.5 7.5 0 1 0 15 0 a7.5 7.5 0 1 0 -15 0zM703.47 360.62 a7.5 7.5 0 1 0 15 0 a7.5 7.5 0 1 0 -15 0zM638.51 323.12 a7.5 7.5 0 1 0 15 0 a7.5 7.5 0 1 0 -15 0zM638.51 248.12 a7.5 7.5 0 1 0 15 0 a7.5 7.5 0 1 0 -15 0zM898.33 548.12 a7.5 7.5 0 1 0 15 0 a7.5 7.5 0 1 0 -15 0zM963.28 585.62 a7.5 7.5 0 1 0 15 0 a7.5 7.5 0 1 0 -15 0zM963.28 660.62 a7.5 7.5 0 1 0 15 0 a7.5 7.5 0 1 0 -15 0zM898.33 698.12 a7.5 7.5 0 1 0 15 0 a7.5 7.5 0 1 0 -15 0zM833.37 660.62 a7.5 7.5 0 1 0 15 0 a7.5 7.5 0 1 0 -15 0zM833.37 585.62 a7.5 7.5 0 1 0 15 0 a7.5 7.5 0 1 0 -15 0z" fill="#03305d"></path><path d="M8.61 127.67L51.91 152.67L51.91 202.67L8.61 227.67L-34.69 202.67L-34.69 152.67zM51.91 202.67L95.22 227.67L95.22 277.67L51.91 302.67L8.61 277.67L8.61 227.67zM51.91 352.67L95.22 377.67L95.22 427.67L51.91 452.67L8.61 427.67L8.61 377.67zM8.61 427.67L51.91 452.67L51.91 502.67L8.61 527.67L-34.69 502.67L-34.69 452.67zM95.22 427.67L138.52 452.67L138.52 502.67L95.22 527.67L51.91 502.67L51.91 452.67zM138.52 502.67L181.82 527.67L181.82 577.67L138.52 602.67L95.22 577.67L95.22 527.67zM225.12 52.67L268.43 77.67L268.43 127.67L225.12 152.67L181.82 127.67L181.82 77.67zM181.82 127.67L225.12 152.67L225.12 202.67L181.82 227.67L138.52 202.67L138.52 152.67zM268.43 127.67L311.73 152.67L311.73 202.67L268.43 227.67L225.12 202.67L225.12 152.67zM311.73 202.67L355.03 227.67L355.03 277.67L311.73 302.67L268.43 277.67L268.43 227.67zM398.33 52.67L441.64 77.67L441.64 127.67L398.33 152.67L355.03 127.67L355.03 77.67zM355.03 127.67L398.33 152.67L398.33 202.67L355.03 227.67L311.73 202.67L311.73 152.67zM398.33 352.67L441.64 377.67L441.64 427.67L398.33 452.67L355.03 427.67L355.03 377.67zM355.03 427.67L398.33 452.67L398.33 502.67L355.03 527.67L311.73 502.67L311.73 452.67zM441.64 -22.33L484.94 2.67L484.94 52.67L441.64 77.67L398.33 52.67L398.33 2.67zM484.94 352.67L528.24 377.67L528.24 427.67L484.94 452.67L441.64 427.67L441.64 377.67zM528.24 127.67L571.54 152.67L571.54 202.67L528.24 227.67L484.94 202.67L484.94 152.67zM528.24 277.67L571.54 302.67L571.54 352.67L528.24 377.67L484.94 352.67L484.94 302.67zM571.54 502.67L614.85 527.67L614.85 577.67L571.54 602.67L528.24 577.67L528.24 527.67zM614.85 -22.33L658.15 2.67L658.15 52.67L614.85 77.67L571.54 52.67L571.54 2.67zM788.06 277.67L831.36 302.67L831.36 352.67L788.06 377.67L744.75 352.67L744.75 302.67zM831.36 502.67L874.66 527.67L874.66 577.67L831.36 602.67L788.06 577.67L788.06 527.67zM874.66 -22.33L917.96 2.67L917.96 52.67L874.66 77.67L831.36 52.67L831.36 2.67zM917.96 352.67L961.27 377.67L961.27 427.67L917.96 452.67L874.66 427.67L874.66 377.67zM917.96 502.67L961.27 527.67L961.27 577.67L917.96 602.67L874.66 577.67L874.66 527.67zM961.27 127.67L1004.57 152.67L1004.57 202.67L961.27 227.67L917.96 202.67L917.96 152.67zM1091.17 52.67L1134.47 77.67L1134.47 127.67L1091.17 152.67L1047.87 127.67L1047.87 77.67zM1091.17 202.67L1134.47 227.67L1134.47 277.67L1091.17 302.67L1047.87 277.67L1047.87 227.67zM1047.87 277.67L1091.17 302.67L1091.17 352.67L1047.87 377.67L1004.57 352.67L1004.57 302.67zM1091.17 352.67L1134.47 377.67L1134.47 427.67L1091.17 452.67L1047.87 427.67L1047.87 377.67zM1047.87 427.67L1091.17 452.67L1091.17 502.67L1047.87 527.67L1004.57 502.67L1004.57 452.67zM1177.78 52.67L1221.08 77.67L1221.08 127.67L1177.78 152.67L1134.47 127.67L1134.47 77.67zM1177.78 502.67L1221.08 527.67L1221.08 577.67L1177.78 602.67L1134.47 577.67L1134.47 527.67zM1307.68 127.67L1350.99 152.67L1350.99 202.67L1307.68 227.67L1264.38 202.67L1264.38 152.67zM1350.99 352.67L1394.29 377.67L1394.29 427.67L1350.99 452.67L1307.68 427.67L1307.68 377.67zM1307.68 427.67L1350.99 452.67L1350.99 502.67L1307.68 527.67L1264.38 502.67L1264.38 452.67zM1350.99 502.67L1394.29 527.67L1394.29 577.67L1350.99 602.67L1307.68 577.67L1307.68 527.67zM1394.29 -22.33L1437.59 2.67L1437.59 52.67L1394.29 77.67L1350.99 52.67L1350.99 2.67zM1394.29 427.67L1437.59 452.67L1437.59 502.67L1394.29 527.67L1350.99 502.67L1350.99 452.67z" stroke="rgba(6, 80, 156, 0.93)" stroke-width="2"></path></g><defs><mask id="SvgjsMask1026"><rect width="1446" height="542" fill="#ffffff"></rect></mask></defs></svg>